# xmcd
#
# Track frame offsets:
#	150
#	17043
#	39277
#	40384
#	56410
#	74298
#	90814
#	91519
#	108623
#	121413
#	136230
#	155511
#
# Disc length: 2248 seconds
#
# Revision: 0
# Processed by: cddbd v1.5.2PL0 Copyright (c) Steve Scherf et al.
# Submitted via: dBpowerAMP V4.0
#
DISCID=8d08c60c
DTITLE=jamika - helium ballons illusions
DYEAR=2006
DGENRE=Blues
TTITLE0=shanti lift
TTITLE1=feed on
TTITLE2=fall of an empire
TTITLE3=crash
TTITLE4=travel bag blues
TTITLE5=fast train
TTITLE6=umbilical runway
TTITLE7=transient posse
TTITLE8=the beat
TTITLE9=good food
TTITLE10=don't stop
TTITLE11=zeus
EXTD=
EXTT0=
EXTT1=
EXTT2=
EXTT3=
EXTT4=
EXTT5=
EXTT6=
EXTT7=
EXTT8=
EXTT9=
EXTT10=
EXTT11=
PLAYORDER=
